<?xml version="1.0" encoding="UTF-8" standalone="no"?>
<svg
   width="324"
   height="234"
   version="1.1"
   id="svg19"
   sodipodi:docname="network.svg"
   xml:space="preserve"
   inkscape:version="1.2.2 (b0a8486541, 2022-12-01)"
   xmlns:inkscape="http://www.inkscape.org/namespaces/inkscape"
   xmlns:sodipodi="http://sodipodi.sourceforge.net/DTD/sodipodi-0.dtd"
   xmlns="http://www.w3.org/2000/svg"
   xmlns:svg="http://www.w3.org/2000/svg"><g
     id="g3302"><path
       fill="url(#a)"
       d="M0 234V0h324v234H200.75Z"
       id="path9"
       style="fill:url(#a)" /><path
       d="m 80.84238,152.35466 8,7.5 -8,7.5 v -4 h -12 v -7 h 12 m 0,-4"
       id="path55"
       inkscape:connector-curvature="0"
       style="fill:#ffffff;fill-opacity:1;fill-rule:evenodd;stroke:none;opacity:0.94983378"
       clip-path="url(#clipPath1674)"
       transform="matrix(4.8223329,0,0,4.2890974,-194.41515,-588.46303)" /><path
       d="m 68.84238,165.35466 -8,7.5 8,7.5 v -4 h 12 v -7 h -12 m 0,-4"
       id="path57"
       inkscape:connector-curvature="0"
       style="fill:#ffffff;fill-opacity:1;fill-rule:evenodd;stroke:none;opacity:0.95"
       clip-path="url(#clipPath1666)"
       transform="matrix(4.8223329,0,0,4.2890974,-203.4146,-604.55965)" /></g><sodipodi:namedview
     id="namedview21"
     pagecolor="#ffffff"
     bordercolor="#000000"
     borderopacity="0.25"
     inkscape:showpageshadow="2"
     inkscape:pageopacity="0.0"
     inkscape:pagecheckerboard="0"
     inkscape:deskcolor="#d1d1d1"
     showgrid="false"
     inkscape:zoom="0.4326923"
     inkscape:cx="-154.84445"
     inkscape:cy="147.91111"
     inkscape:window-width="1920"
     inkscape:window-height="990"
     inkscape:window-x="0"
     inkscape:window-y="0"
     inkscape:window-maximized="1"
     inkscape:current-layer="svg19" /><defs
     id="defs7"><linearGradient
       id="a"
       x1="162.38466"
       x2="163.71307"
       y1="179.67921"
       y2="4.5675263"
       gradientUnits="userSpaceOnUse"><stop
         offset="0"
         stop-color="#df68a0"
         id="stop2"
         style="stop-color:#6f4ad6;stop-opacity:1;" /><stop
         offset="1"
         stop-color="purple"
         id="stop4"
         style="stop-color:#001680;stop-opacity:1;" /></linearGradient><linearGradient
       id="linearGradient3764"
       x1="1"
       x2="47"
       gradientUnits="userSpaceOnUse"
       gradientTransform="matrix(0,-1,1,0,-1.5e-6,47.999998)"><stop
         stop-color="#d9c3cb"
         stop-opacity="1"
         id="stop7" /><stop
         offset="1"
         stop-color="#e1d0d6"
         stop-opacity="1"
         id="stop9" /></linearGradient><clipPath
       id="clipPath-689698811"><g
         transform="translate(0,-1004.3622)"
         id="g12"><path
           d="m -24 13 c 0 1.105 -0.672 2 -1.5 2 -0.828 0 -1.5 -0.895 -1.5 -2 0 -1.105 0.672 -2 1.5 -2 0.828 0 1.5 0.895 1.5 2 z"
           transform="matrix(15.333333,0,0,11.5,414.99999,878.8622)"
           fill="#1890d0"
           id="path14" /></g></clipPath><clipPath
       clipPathUnits="userSpaceOnUse"
       id="clipPath1666"><g
         id="g1672"><g
           transform="rotate(-90,-381.58258,571.93724)"
           id="g1670"><path
             d="m -24,13 c 0,1.105 -0.672,2 -1.5,2 -0.828,0 -1.5,-0.895 -1.5,-2 0,-1.105 0.672,-2 1.5,-2 0.828,0 1.5,0.895 1.5,2 z"
             transform="matrix(15.333333,0,0,11.5,414.99999,878.8622)"
             fill="#1890d0"
             id="path1668" /></g></g></clipPath><clipPath
       clipPathUnits="userSpaceOnUse"
       id="clipPath1674"><g
         id="g1680"><g
           transform="rotate(-90,-381.58258,571.93724)"
           id="g1678"><path
             d="m -24,13 c 0,1.105 -0.672,2 -1.5,2 -0.828,0 -1.5,-0.895 -1.5,-2 0,-1.105 0.672,-2 1.5,-2 0.828,0 1.5,0.895 1.5,2 z"
             transform="matrix(15.333333,0,0,11.5,414.99999,878.8622)"
             fill="#1890d0"
             id="path1676" /></g></g></clipPath></defs><g
     id="g33"
     transform="rotate(-90,-24.556054,124.16617)" /></svg>
