<svg xmlns="http://www.w3.org/2000/svg" width="324" height="234"><defs><clipPath id="c"><path d="M194.48 317.52h123.04V194.48H194.48Z"/></clipPath><clipPath id="d"><path d="M212.67 299.33h86.66v-86.66h-86.66z"/></clipPath><clipPath id="e"><path d="M234.04 277.96h43.92v-43.92h-43.92z"/></clipPath><linearGradient id="a" x1="16.62" x2="30.94" y1="15.943" y2="15.943" gradientTransform="scale(1.0084 .9917)" gradientUnits="userSpaceOnUse" href="#a" spreadMethod="pad"><stop offset="0"/><stop offset=".5" stop-color="#4d4d4d"/><stop offset="1"/></linearGradient><linearGradient id="b" x1="17.878" x2="29.678" y1="17.205" y2="17.205" gradientTransform="scale(1.0085 .9916)" gradientUnits="userSpaceOnUse" href="#a" spreadMethod="pad"><stop offset="0"/><stop offset=".5" stop-color="#4d4d4d"/><stop offset="1"/></linearGradient></defs><path fill="#254f67" d="M-.05.01h324.48v234.42H-.05z"/><path fill="none" stroke="#fff" stroke-width="1.84" d="M-1.28-1.52H326.6v237.04H-1.3Zm0 0"/><path fill="#b3ddf0" d="M89.01 56.41h146.53v120.685H89.01Z"/><path fill="url(#a)" d="M16.76 22.9a7.17 7.17 0 0 0 7.22 7.11 7.17 7.17 0 0 0 7.22-7.1c0-3.92-3.24-7.1-7.22-7.1a7.17 7.17 0 0 0-7.22 7.1" transform="matrix(4.4502 0 0 4.4653 55.318 10.767)"/><path fill="url(#b)" d="M18.03 22.9a5.9 5.9 0 0 0 5.95 5.86 5.9 5.9 0 0 0 5.95-5.85 5.9 5.9 0 0 0-5.95-5.85 5.9 5.9 0 0 0-5.95 5.85" transform="matrix(4.4502 0 0 4.4653 55.318 10.767)"/><path fill="#e84c3d" d="m166.885 105.074-18.913-20.54a32.398 32.508 0 0 1 31.33 1.786l-8.323 25.72z"/><path fill="#9c56b8" d="m171.469 113.246 8.544-26.48a31.374 31.48 0 0 1 14.107 27.685l-26.701 5.716z"/><path fill="#f1c50e" d="M129.993 110.835a31.685 31.793 0 0 1 17.178-25.9l18.423 19.96h-8.143z"/><path fill="#00bd9b" d="M162.034 144.771a32.398 32.508 0 0 1-17.222-4.912l8.277-25.765 4.095 6.922 18.913 20.54c-4.361 2.143-9.123 3.215-14.063 3.215"/><path fill="#51d88b" d="M144.055 139.368a31.374 31.48 0 0 1-14.107-27.685l26.701-5.76-4.005 6.966z"/><path fill="#2d98e0" d="M158.474 121.194h8.1l27.457-5.939a31.685 31.793 0 0 1-17.178 25.9z"/><g clip-path="url(#c)" opacity=".3" transform="matrix(.3249 0 0 -.3215 78.637 195.363)"><path d="M317.52 256a61.52 61.52 0 1 0-123.04 0 61.52 61.52 0 0 0 123.04 0"/></g><g clip-path="url(#d)" opacity=".3" transform="matrix(.3249 0 0 -.3215 78.637 195.363)"><path d="M299.33 256a43.33 43.33 0 1 0-86.66 0 43.33 43.33 0 0 0 86.66 0"/></g><g clip-path="url(#e)" opacity=".3" transform="matrix(.3249 0 0 -.3215 78.637 195.363)"><path d="M277.96 256a21.96 21.96 0 1 0-43.92 0 21.96 21.96 0 0 0 43.92 0"/></g><path fill="#00cdd1" d="m191.584 89.401-5.519-5.492-5.384 2.679a33.199 33.311 0 0 0-4.54-2.635l-.445-5.983-7.476-2.01-3.382 5.002h.044a26.232 26.232 0 0 0-5.295 0h.044l-3.338-5.002-7.565 2.01-.356 5.983a32.559 32.559 0 0 0-4.54 2.635l-5.428-2.68-5.474 5.493 2.67 5.403a28.926 29.025 0 0 0-2.67 4.555l-6.008.402-2.003 7.501 4.985 3.305c-.178 1.786 0 3.527.044 5.269h-.044l-5.029 3.349 2.003 7.501 6.052.402a35.005 35.005 0 0 0 2.625 4.51l-2.67 5.403 5.519 5.493 5.384-2.68a33.607 33.607 0 0 0 4.54 2.68l.445 5.983 7.476 2.01 3.382-5.002c1.78.134 3.516.134 5.251 0l3.338 5.002 7.52-2.01.401-5.983c1.558-.76 3.116-1.652 4.54-2.68l5.429 2.68 5.518-5.493-2.67-5.358a32.488 32.488 0 0 0 2.581-4.555l6.052-.446 2.003-7.457-5.029-3.35c.178-1.785.09-3.527.045-5.268l4.984-3.35-2.003-7.456-6.007-.447a31.596 31.704 0 0 0-2.67-4.51zm-12.327 40.768a24.165 24.247 0 0 1-34.045 0 23.809 23.89 0 0 1 0-33.936 24.21 24.291 0 0 1 34.045 0 23.809 23.89 0 0 1 0 33.936z"/><path d="M96.839 56.804c-3.516 0-6.32 2.367-6.32 5.359v110.114c0 2.948 2.804 5.359 6.32 5.359H227.54c3.516 0 6.32-2.411 6.32-5.359V62.117c0-2.99-2.804-5.357-6.32-5.357zm-.134 5.225h130.836c.178 0 .134-.045.134.134v110.114c0 .134.044.09-.134.09H96.84c-.178 0-.134.044-.134-.09Z" opacity=".05"/><path d="M96.839 56.804c-3.516 0-6.32 2.367-6.32 5.359v110.114c0 2.948 2.804 5.359 6.32 5.359H227.54c3.516 0 6.32-2.411 6.32-5.359V62.117c0-2.99-2.804-5.357-6.32-5.357zm0 3.305H227.54c1.424 0 2.448.848 2.448 2.054v110.114c0 1.161-1.024 2.054-2.448 2.054H96.84c-1.424 0-2.448-.893-2.448-2.054V62.117c0-1.205 1.024-2.008 2.448-2.008z" opacity=".12"/><path d="M96.839 56.804c-3.516 0-6.32 2.367-6.32 5.359v110.114c0 2.948 2.804 5.359 6.32 5.359H227.54c3.516 0 6.32-2.411 6.32-5.359V62.117c0-2.99-2.804-5.357-6.32-5.357zm0 1.697 130.702.045c2.403 0 4.273 1.563 4.273 3.572v110.16c0 2.009-1.87 3.572-4.273 3.572H96.84c-2.403 0-4.273-1.563-4.273-3.573V62.117c0-2.053 1.87-3.616 4.273-3.616z" opacity=".15"/><path fill="#0e8dff" d="M90.475 165.178h35.869v14.2H90.519Z"/><path fill="#32a6a0" d="M126.344 165.178h35.824v14.2h-35.824z"/><path fill="#f66a08" d="M162.212 165.178h35.824v14.2h-35.913Z"/><path fill="#e4d32d" d="M198.036 165.178h35.825v14.2h-35.825z"/><path fill="#386a87" d="M94.747 53.277c-4.673 0-8.455 3.125-8.455 7.1v113.687c0 3.93 3.782 7.1 8.455 7.1h134.886c4.673 0 8.455-3.17 8.455-7.145V60.42c0-3.93-3.782-7.144-8.455-7.144zm2.092 3.572H227.54c3.516 0 6.32 2.322 6.32 5.314v110.114c0 2.948-2.804 5.359-6.32 5.359H96.84c-3.516 0-6.32-2.411-6.32-5.359V62.117c0-2.99 2.804-5.268 6.32-5.268z"/></svg>